[img]http://img851.imageshack.us/img851/9255/csnrr.jpg[/img]

Ghost Rider Spirit of Vengeance 2012 TS XviD - ILLUMINATI

  http://www.imdb.com/title/tt1071875/



Sources - Thanks 



Video

ID                               : 0

Format                           : MPEG-4 Visual

Format profile                   : Advanced Simple@L5

Format settings, BVOP            : 2

Format settings, QPel            : No

Format settings, GMC             : No warppoints

Format settings, Matrix          : Default (H.263)

Muxing mode                      : Packed bitstream

Codec ID                         : XVID

Codec ID/Hint                    : XviD

Duration                         : 1h 28mn

Bit rate                         : 2 089 Kbps

Width                            : 720 pixels

Height                           : 288 pixels

Display aspect ratio             : 2.500

Frame rate                       : 23.976 fps

Color space                      : YUV

Chroma subsampling               : 4:2:0

Bit depth                        : 8 bits

Scan type                        : Progressive

Compression mode                 : Lossy

Bits/(Pixel*Frame)               : 0.420

Stream size                      : 1.29 GiB (94%)

Writing library                  : XviD 64



Audio

ID                               : 1

Format                           : MPEG Audio

Format version                   : Version 1

Format profile                   : Layer 3

Mode                             : Joint stereo

Mode extension                   : MS Stereo

Codec ID                         : 55

Codec ID/Hint                    : MP3

Duration                         : 1h 28mn

Bit rate mode                    : Constant

Bit rate                         : 128 Kbps

Channel(s)                       : 2 channels

Sampling rate                    : 44.1 KHz

Compression mode                 : Lossy

Stream size                      : 80.7 MiB (6%)

Alignment                        : Split accross interleaves

Interleave, duration             : 42 ms (1.00 video frame)



Notes -

Nothing you need to know other than its very nice 

 
http://www.shotpix.com/images/23679065689053834253.png 
http://www.shotpix.com/images/60628729213024108454.png 
http://www.shotpix.com/images/23470097699737538888.png 
http://www.shotpix.com/images/41505682362764139584.png 
http://www.shotpix.com/images/27404190265083342883.png 
http://www.shotpix.com/images/34433394836993863084.png 
http://www.shotpix.com/images/85546246305409760431.png 
http://www.shotpix.com/images/99368293057377258726.png